<?xml version="1.0" standalone="no"?>
<!DOCTYPE svg PUBLIC "-//W3C//DTD SVG 20010904//EN"
 "http://www.w3.org/TR/2001/REC-SVG-20010904/DTD/svg10.dtd">
<svg version="1.0" xmlns="http://www.w3.org/2000/svg"
 width="59.000000pt" height="60.000000pt" viewBox="0 0 59.000000 60.000000"
 preserveAspectRatio="xMidYMid meet">
<metadata>
Created by potrace 1.15, written by Peter Selinger 2001-2017
</metadata>
<g transform="translate(0.000000,60.000000) scale(0.100000,-0.100000)"
fill="#000000" stroke="none">
<path d="M220 551 c-48 -16 -105 -49 -132 -78 -68 -73 -95 -185 -64 -264 17
-41 54 -100 43 -68 -6 18 31 43 81 54 17 3 32 8 32 11 0 2 -14 23 -31 47 -26
37 -31 56 -36 123 -6 95 1 105 91 123 70 13 85 5 106 -59 7 -22 17 -40 21 -40
8 0 3 -102 -7 -132 -3 -10 -1 -18 5 -18 6 0 11 5 11 11 0 6 12 1 26 -10 15
-12 34 -21 43 -21 9 0 40 -9 70 -21 39 -14 57 -17 65 -9 19 19 13 150 -8 193
-26 52 -83 110 -136 137 -47 24 -139 35 -180 21z"/>
</g>
</svg>
