<svg id="svg" version="1.1" xmlns="http://www.w3.org/2000/svg" xmlns:xlink="http://www.w3.org/1999/xlink" width="400" height="406.77966101694915" viewBox="0, 0, 400,406.77966101694915"><g id="svgg"><path id="path0" d="M188.200 29.577 C 183.946 30.070,176.788 31.493,171.000 32.996 C 168.140 33.739,164.457 34.546,162.817 34.790 C 151.705 36.441,134.700 41.226,128.064 44.568 C 126.566 45.322,123.554 46.516,121.370 47.221 C 116.637 48.749,116.051 49.032,111.400 52.022 C 109.119 53.488,106.554 54.734,104.400 55.421 C 99.863 56.869,98.244 57.730,95.829 59.977 C 94.713 61.015,92.630 62.562,91.200 63.414 C 89.662 64.329,86.394 67.113,83.200 70.226 C 80.132 73.217,76.332 76.466,74.400 77.750 C 65.135 83.910,64.745 84.240,63.118 87.294 C 61.960 89.466,58.260 93.220,53.600 96.951 C 52.830 97.567,51.390 99.114,50.400 100.388 C 49.410 101.662,47.319 104.140,45.753 105.895 C 44.187 107.649,42.234 110.236,41.412 111.643 C 40.591 113.049,39.334 114.920,38.618 115.800 C 36.938 117.868,36.381 119.033,34.997 123.372 C 34.174 125.954,33.317 127.660,31.907 129.523 C 29.863 132.223,25.726 140.098,24.196 144.200 C 23.238 146.769,23.004 148.283,22.404 155.825 C 21.935 161.719,20.929 165.131,18.773 168.141 C 9.418 181.206,6.181 208.259,11.878 225.763 C 12.951 229.058,13.050 230.511,12.828 239.600 C 12.717 244.143,12.798 244.540,15.976 255.000 C 18.629 263.729,22.859 271.170,26.580 273.652 C 32.751 277.768,33.658 278.895,32.541 281.049 C 32.218 281.672,31.804 282.276,31.622 282.391 C 29.129 283.963,29.909 290.754,32.807 292.725 C 35.907 294.832,45.472 290.402,47.820 285.771 C 48.272 284.882,49.226 283.510,49.942 282.724 C 50.658 281.937,51.459 281.012,51.722 280.669 C 52.406 279.774,55.827 278.508,61.736 276.962 C 64.560 276.224,68.871 274.980,71.314 274.199 C 75.596 272.830,77.567 272.511,87.313 271.611 C 92.227 271.157,95.847 269.758,99.400 266.940 C 100.500 266.067,102.508 264.604,103.862 263.688 C 110.944 258.896,111.389 253.194,105.194 246.600 C 103.954 245.280,102.069 243.030,101.006 241.600 C 99.943 240.170,98.571 238.460,97.958 237.800 C 92.560 231.991,86.152 221.872,81.289 211.478 C 77.248 202.843,75.011 198.980,72.382 196.104 C 69.975 193.470,69.905 192.709,71.633 187.977 C 74.101 181.218,73.181 177.198,66.969 167.595 C 62.189 160.205,61.894 154.889,65.994 149.979 C 69.594 145.667,69.802 133.990,66.521 120.406 C 64.099 110.376,64.032 106.096,66.211 100.379 C 67.225 97.719,68.385 96.216,75.126 88.834 C 76.817 86.983,78.763 84.638,79.451 83.623 C 84.169 76.662,91.240 72.995,103.000 71.412 C 104.100 71.264,106.800 70.632,109.000 70.008 C 114.567 68.428,116.312 68.107,122.014 67.615 C 126.741 67.207,131.501 66.262,137.814 64.478 C 139.652 63.959,142.636 63.584,146.414 63.397 C 149.596 63.240,155.170 62.678,158.800 62.148 C 175.738 59.676,177.214 59.620,183.462 61.217 C 188.091 62.399,193.230 65.606,196.246 69.194 C 200.704 74.497,208.248 84.921,209.659 87.726 C 210.343 89.087,212.128 92.360,213.624 95.000 C 216.390 99.878,216.949 101.479,218.374 108.617 C 220.552 119.517,221.203 120.737,226.452 123.742 C 232.323 127.104,234.849 137.142,233.009 149.800 C 232.141 155.774,232.357 158.054,234.149 161.827 C 236.569 166.924,236.430 170.669,233.601 176.598 C 231.208 181.614,230.851 184.162,230.719 197.200 C 230.566 212.265,231.617 215.176,240.400 224.021 C 242.050 225.683,244.120 227.824,245.000 228.780 C 251.242 235.555,260.337 240.171,275.055 244.034 C 291.310 248.301,302.530 251.671,307.055 253.644 C 309.665 254.782,313.690 256.390,316.000 257.217 C 318.310 258.044,322.041 259.456,324.291 260.354 C 326.541 261.252,331.401 262.816,335.091 263.829 C 339.837 265.132,343.439 266.433,347.400 268.273 C 360.634 274.422,362.278 274.831,364.760 272.588 C 366.943 270.616,367.938 268.254,369.274 261.873 C 369.910 258.834,371.081 254.244,371.876 251.673 C 374.618 242.804,375.214 240.657,375.991 236.835 C 379.519 219.472,378.208 190.378,373.342 178.076 C 372.353 175.574,370.490 169.449,369.202 164.464 C 365.216 149.040,363.633 144.273,359.870 136.362 C 357.742 131.890,356.811 130.629,353.388 127.590 C 352.515 126.815,351.143 125.375,350.340 124.390 C 348.545 122.188,347.951 122.391,346.200 125.809 C 345.540 127.097,344.505 128.512,343.900 128.954 L 342.800 129.756 341.706 128.940 C 339.934 127.616,339.491 125.367,339.982 120.179 C 340.625 113.382,340.533 112.152,339.058 107.779 C 337.210 102.298,335.599 99.276,332.951 96.320 C 331.709 94.934,330.334 93.320,329.896 92.733 C 327.287 89.242,321.490 84.646,318.249 83.501 C 312.350 81.418,310.644 79.848,306.014 72.240 C 302.104 65.814,300.681 64.488,295.232 62.190 C 293.428 61.429,290.825 60.002,289.446 59.018 C 288.067 58.034,285.243 56.562,283.170 55.747 C 281.096 54.932,278.050 53.339,276.400 52.207 C 271.737 49.008,269.367 47.793,264.400 46.054 C 261.870 45.168,257.730 43.698,255.200 42.789 C 250.818 41.213,237.163 37.702,226.400 35.383 C 223.650 34.791,218.295 33.518,214.501 32.555 C 203.098 29.661,195.198 28.767,188.200 29.577 " stroke="none" fill="#271c15" fill-rule="evenodd"></path><path id="path1" d="M232.046 229.243 C 231.582 229.741,230.828 231.150,230.370 232.374 C 228.749 236.716,226.170 238.773,222.329 238.791 C 220.203 238.801,219.979 239.159,220.450 241.800 C 221.395 247.094,219.487 253.444,216.007 256.594 C 214.466 257.989,212.550 260.889,210.323 265.200 C 209.129 267.510,207.511 270.310,206.728 271.423 C 205.944 272.535,205.166 273.885,204.999 274.423 C 203.552 279.079,200.471 282.865,194.068 287.853 C 191.281 290.024,187.727 293.076,186.171 294.635 C 184.615 296.194,182.314 298.230,181.057 299.158 C 179.800 300.087,178.227 301.598,177.561 302.517 C 176.238 304.343,171.650 309.504,168.792 312.380 C 167.797 313.381,165.966 315.460,164.721 317.000 C 158.109 325.184,148.472 332.813,145.612 332.129 C 143.906 331.721,137.600 324.708,137.600 323.218 C 137.600 323.042,137.311 322.658,136.958 322.365 C 134.730 320.516,131.146 307.904,129.183 295.000 C 128.570 290.975,126.783 285.391,125.414 283.222 C 123.975 280.943,123.523 279.660,123.537 277.900 C 123.549 276.493,123.123 275.954,122.630 276.752 C 121.642 278.350,118.228 277.161,116.307 274.550 C 113.912 271.294,113.011 270.631,111.134 270.742 C 107.607 270.950,102.405 274.978,101.760 278.000 C 101.312 280.103,101.307 280.055,102.233 282.200 C 103.890 286.038,103.805 290.677,101.924 299.000 C 101.118 302.564,101.083 302.626,98.395 305.264 C 95.644 307.962,93.559 311.201,91.996 315.200 C 90.347 319.421,88.299 321.200,85.090 321.200 C 79.718 321.200,78.912 312.971,83.385 303.800 C 84.350 301.820,85.850 298.310,86.716 296.000 C 89.169 289.465,89.986 287.991,92.704 285.200 C 96.922 280.867,97.015 280.069,93.379 279.392 C 84.169 277.679,73.055 281.425,64.718 289.055 C 63.243 290.405,60.633 292.322,58.918 293.314 C 57.203 294.307,54.450 296.119,52.800 297.340 C 46.895 301.713,39.863 303.962,36.870 302.436 C 35.016 301.490,34.634 301.408,35.025 302.041 C 35.175 302.283,35.451 303.854,35.640 305.532 C 35.846 307.375,36.354 309.300,36.920 310.392 C 38.584 313.598,43.071 320.154,45.347 322.705 C 46.565 324.070,48.291 326.262,49.184 327.577 C 50.088 328.908,51.647 330.530,52.703 331.239 C 55.646 333.213,58.697 336.331,60.690 339.400 C 63.051 343.034,64.127 344.179,66.800 345.897 C 70.066 347.997,73.477 350.673,76.400 353.430 C 77.830 354.779,80.033 356.543,81.295 357.350 C 82.558 358.158,84.700 359.809,86.057 361.019 C 87.414 362.230,89.891 364.062,91.562 365.092 C 93.233 366.121,95.320 367.534,96.200 368.232 C 98.342 369.930,99.577 370.514,103.620 371.740 C 107.035 372.775,109.402 374.140,114.200 377.839 C 117.409 380.313,119.751 381.350,125.000 382.622 C 127.420 383.209,131.560 384.281,134.200 385.006 C 136.840 385.730,139.360 386.410,139.800 386.515 C 140.240 386.621,141.950 387.071,143.600 387.516 C 145.250 387.960,147.950 388.445,149.600 388.593 C 151.250 388.742,153.230 389.056,154.000 389.293 C 154.770 389.529,156.120 389.948,157.000 390.225 C 162.665 392.003,164.489 392.405,166.822 392.392 C 173.323 392.354,172.667 392.175,177.632 395.332 C 182.285 398.290,198.886 398.219,204.897 395.215 C 206.946 394.191,207.792 394.000,210.284 394.000 C 213.640 394.000,214.654 393.602,218.103 390.928 C 221.172 388.548,221.992 388.348,229.038 388.266 C 234.837 388.197,235.138 388.153,236.638 387.143 C 237.970 386.247,240.115 385.399,240.800 385.498 C 240.910 385.514,241.630 385.649,242.400 385.798 C 247.874 386.859,252.775 386.089,258.375 383.287 C 267.804 378.569,268.991 377.835,271.800 374.987 C 275.080 371.660,275.562 371.421,280.624 370.606 C 288.470 369.344,296.930 364.496,299.227 359.947 C 301.479 355.485,303.129 353.319,304.527 352.989 C 305.227 352.823,305.890 352.662,306.000 352.629 C 306.110 352.596,306.700 352.437,307.311 352.274 C 308.434 351.976,313.113 348.945,314.332 347.725 C 314.696 347.361,316.615 346.305,318.597 345.378 C 322.335 343.628,323.323 342.774,326.423 338.615 C 327.400 337.303,329.928 334.513,332.040 332.415 C 334.152 330.317,336.773 327.250,337.863 325.600 C 338.954 323.950,341.158 320.980,342.760 319.000 C 344.363 317.020,345.825 315.040,346.009 314.600 C 346.194 314.160,347.245 312.822,348.344 311.626 C 350.728 309.034,350.802 308.891,352.375 303.863 C 353.062 301.667,355.079 297.067,356.935 293.463 C 359.911 287.682,362.409 281.659,362.395 280.296 C 362.392 280.004,360.870 279.425,358.695 278.888 C 356.500 278.347,352.808 276.937,349.600 275.417 C 343.681 272.612,332.230 268.608,325.516 266.996 C 320.173 265.714,317.758 264.879,314.200 263.083 C 305.134 258.507,287.809 252.699,277.600 250.812 C 263.047 248.123,248.765 241.739,243.532 235.586 C 239.842 231.246,233.462 227.723,232.046 229.243 M339.461 300.029 C 340.626 300.464,341.726 302.400,340.808 302.400 C 340.631 302.400,340.374 302.850,340.236 303.400 C 340.098 303.950,339.783 304.400,339.537 304.400 C 339.291 304.400,338.550 305.032,337.891 305.804 C 337.033 306.807,336.554 307.094,336.209 306.807 C 335.944 306.587,335.598 306.535,335.442 306.691 C 335.286 306.848,335.276 306.666,335.422 306.288 C 335.567 305.910,335.502 305.600,335.278 305.600 C 334.939 305.600,334.885 304.025,335.148 301.754 C 335.177 301.509,335.578 300.827,336.040 300.240 C 336.895 299.153,337.088 299.141,339.461 300.029 M114.005 307.002 C 116.623 308.356,120.153 313.696,120.082 316.195 C 119.969 320.161,112.059 318.588,110.241 314.237 C 108.287 309.559,110.546 305.214,114.005 307.002 " stroke="none" fill="#d78093" fill-rule="evenodd"></path><path id="path2" d="M0.000 203.200 L 0.000 406.400 200.000 406.400 L 400.000 406.400 400.000 203.200 L 400.000 0.000 200.000 0.000 L 0.000 0.000 0.000 203.200 M211.600 25.789 C 229.688 26.791,230.970 27.008,236.600 30.005 C 240.284 31.967,241.416 32.279,248.917 33.406 C 253.744 34.131,255.855 34.792,260.800 37.127 C 262.670 38.010,266.000 39.310,268.200 40.017 C 273.205 41.626,273.841 41.945,277.917 44.882 C 279.741 46.196,283.971 48.585,287.317 50.191 C 290.663 51.796,295.407 54.435,297.859 56.055 C 300.312 57.675,303.015 59.415,303.867 59.922 C 304.718 60.429,305.861 61.509,306.406 62.322 C 306.951 63.135,308.658 65.163,310.199 66.828 C 311.739 68.494,313.520 70.541,314.155 71.376 C 314.967 72.444,316.201 73.302,318.307 74.261 C 322.081 75.981,327.636 79.774,330.052 82.279 C 333.863 86.233,339.663 93.746,341.048 96.524 C 341.837 98.106,343.150 100.210,343.966 101.200 C 344.782 102.190,346.020 103.837,346.716 104.860 C 347.413 105.883,348.983 107.674,350.204 108.840 C 352.584 111.111,354.716 114.234,359.069 121.822 C 360.576 124.450,362.698 127.842,363.783 129.361 C 365.062 131.150,366.655 134.317,368.310 138.361 C 372.240 147.962,373.101 150.642,373.788 155.400 C 374.661 161.447,375.290 163.508,377.815 168.600 C 381.355 175.740,382.378 188.989,381.861 221.000 C 381.457 246.060,380.891 251.106,377.753 257.600 C 375.516 262.230,375.073 263.664,373.985 269.800 C 372.938 275.702,371.652 278.489,368.353 282.000 C 362.715 287.999,361.015 290.253,359.706 293.459 C 358.994 295.202,357.485 298.052,356.353 299.794 C 355.221 301.535,353.856 304.219,353.318 305.757 C 351.765 310.202,348.945 314.395,341.721 323.000 C 340.428 324.540,338.764 326.700,338.024 327.800 C 337.283 328.900,335.206 331.330,333.408 333.200 C 331.610 335.070,328.780 338.316,327.120 340.414 C 323.740 344.685,323.060 345.256,317.400 348.581 C 315.200 349.873,312.952 351.276,312.404 351.698 C 309.648 353.823,306.619 356.574,303.000 360.238 C 300.800 362.466,298.190 364.698,297.200 365.198 C 296.210 365.698,294.124 366.961,292.565 368.004 C 288.579 370.673,288.464 370.722,284.282 371.563 C 280.065 372.412,278.165 373.260,274.400 375.978 C 263.978 383.502,251.792 388.706,243.900 389.005 C 241.108 389.111,239.072 389.412,237.761 389.914 C 236.683 390.327,234.720 390.884,233.400 391.153 C 227.031 392.446,222.451 393.722,219.471 395.034 C 216.599 396.298,215.615 396.515,211.400 396.820 C 208.760 397.011,205.070 397.487,203.200 397.877 C 197.421 399.085,181.536 398.865,176.000 397.500 C 173.690 396.930,169.460 396.158,166.600 395.782 C 162.791 395.283,160.276 394.687,157.200 393.557 C 154.890 392.708,150.750 391.481,148.000 390.831 C 145.250 390.180,142.190 389.356,141.200 389.000 C 140.210 388.643,137.690 387.928,135.600 387.410 C 121.514 383.919,118.370 382.690,111.055 377.816 C 106.023 374.464,104.946 373.917,101.637 373.031 C 99.572 372.478,96.953 371.443,95.779 370.716 C 87.895 365.828,84.422 363.472,83.200 362.180 C 82.430 361.366,80.450 359.694,78.800 358.466 C 77.150 357.237,74.990 355.487,74.000 354.577 C 73.010 353.667,70.116 351.390,67.570 349.516 C 63.660 346.638,62.340 345.360,59.078 341.298 C 56.955 338.652,53.867 335.279,52.218 333.803 C 50.568 332.326,48.653 330.192,47.962 329.059 C 47.271 327.927,45.692 325.906,44.453 324.569 C 41.074 320.924,36.910 315.462,34.260 311.200 C 32.960 309.110,30.964 306.473,29.823 305.339 C 23.275 298.829,17.211 286.364,14.191 273.200 C 12.093 264.054,11.445 261.985,9.371 257.800 C 6.238 251.480,6.092 250.466,5.551 231.200 C 4.377 189.420,5.231 174.969,9.268 168.287 C 11.386 164.782,12.240 162.160,13.204 156.200 C 14.730 146.771,18.395 137.231,23.319 129.872 C 24.965 127.413,26.700 124.500,27.175 123.400 C 29.477 118.061,33.882 110.556,36.191 108.037 C 37.521 106.587,39.088 104.590,39.672 103.600 C 40.257 102.610,41.604 100.984,42.667 99.987 C 43.730 98.989,45.281 97.009,46.113 95.587 C 46.945 94.164,48.705 91.740,50.022 90.200 C 51.340 88.660,53.430 86.140,54.667 84.600 C 58.226 80.169,61.137 77.326,64.800 74.703 C 66.670 73.364,69.190 71.428,70.400 70.400 C 71.610 69.372,73.590 67.838,74.800 66.991 C 76.010 66.144,78.170 64.341,79.600 62.984 C 81.030 61.628,82.932 60.145,83.826 59.689 C 84.720 59.232,86.970 57.653,88.826 56.179 C 91.755 53.853,102.578 48.000,103.951 48.000 C 104.139 48.000,106.020 46.837,108.131 45.416 C 112.947 42.174,114.058 41.620,119.000 39.998 C 121.200 39.277,124.718 37.829,126.818 36.780 C 131.438 34.475,132.544 34.160,140.167 32.980 C 145.670 32.128,146.446 31.899,150.167 30.023 C 154.951 27.610,157.559 27.014,166.000 26.402 C 183.813 25.111,196.332 24.942,211.600 25.789 M143.200 76.467 C 141.550 76.676,138.940 77.306,137.400 77.867 C 132.270 79.734,128.009 80.746,123.339 81.206 C 115.873 81.941,110.000 84.299,110.000 86.560 C 110.000 88.881,116.090 94.102,120.093 95.213 C 120.914 95.441,121.768 95.966,121.990 96.381 C 122.212 96.796,122.916 97.250,123.555 97.390 C 125.424 97.801,126.181 98.905,125.645 100.441 C 125.400 101.144,125.200 102.104,125.200 102.573 C 125.200 103.755,123.664 104.567,118.417 106.160 C 109.754 108.790,108.671 110.787,113.294 115.607 C 113.825 116.160,114.599 117.150,115.015 117.807 C 115.431 118.463,116.698 120.080,117.830 121.400 C 122.028 126.294,121.797 127.972,116.600 130.354 C 110.548 133.127,110.557 133.197,117.186 134.798 C 123.434 136.306,126.046 142.109,123.069 147.866 C 121.639 150.633,114.694 154.741,110.000 155.598 C 107.361 156.079,102.550 158.363,101.243 159.754 C 100.318 160.739,100.054 161.569,97.161 172.600 C 95.752 177.975,95.453 182.873,96.282 187.000 C 96.548 188.320,97.306 191.987,97.968 195.149 C 98.630 198.310,99.541 203.890,99.992 207.549 C 100.973 215.500,101.972 218.472,104.648 221.400 C 109.488 226.697,110.400 227.570,112.776 229.184 C 115.452 231.001,123.068 234.751,125.800 235.596 C 127.712 236.188,130.659 237.967,133.400 240.183 C 135.804 242.127,135.825 242.140,141.534 245.183 C 152.917 251.253,158.215 252.212,166.800 249.757 C 172.410 248.153,174.709 246.388,184.000 236.548 C 187.784 232.541,193.526 228.081,197.553 226.023 C 199.010 225.278,202.700 222.421,205.087 220.189 C 208.808 216.711,211.574 209.081,210.873 204.229 C 210.172 199.383,208.767 195.997,205.232 190.634 C 204.664 189.773,204.170 188.603,204.132 188.034 C 204.095 187.465,203.890 181.780,203.676 175.400 C 203.162 160.082,202.206 156.722,197.096 152.277 C 195.676 151.042,194.187 149.234,193.334 147.709 C 190.422 142.502,184.714 140.796,176.200 142.590 C 163.555 145.254,158.668 142.696,161.410 134.848 C 163.168 129.816,163.915 129.281,170.984 128.000 C 182.893 125.842,180.525 120.935,168.400 122.643 C 161.375 123.632,158.357 121.023,160.433 115.755 C 160.683 115.120,161.136 113.567,161.439 112.304 C 161.741 111.041,162.519 109.061,163.166 107.904 C 165.758 103.270,165.107 101.115,160.743 99.880 C 154.188 98.026,153.353 97.416,155.219 95.845 C 155.902 95.270,156.673 94.794,156.931 94.787 C 158.895 94.731,160.510 91.628,160.179 88.545 C 159.848 85.452,160.558 83.728,162.618 82.618 C 164.061 81.841,165.370 79.772,165.146 78.624 C 164.739 76.546,152.249 75.318,143.200 76.467 M142.922 149.278 C 144.462 150.074,147.486 150.792,149.320 150.796 C 151.668 150.801,152.974 151.447,156.654 154.424 C 158.224 155.693,160.204 157.177,161.054 157.721 C 163.457 159.257,164.322 160.324,168.948 167.454 C 169.967 169.024,171.230 170.590,171.755 170.934 C 173.114 171.824,174.484 174.212,174.867 176.359 C 175.047 177.372,175.368 179.010,175.580 180.000 C 175.792 180.990,175.973 182.553,175.983 183.473 C 176.009 186.052,179.166 186.560,182.678 184.551 C 188.892 180.996,200.168 187.887,198.410 194.165 C 197.564 197.185,196.110 199.657,193.436 202.622 C 192.035 204.174,190.238 206.424,189.442 207.622 C 188.645 208.820,187.410 210.643,186.697 211.673 C 185.984 212.703,184.926 214.345,184.347 215.322 C 181.295 220.472,175.444 223.268,165.361 224.396 C 156.983 225.334,153.033 226.380,149.791 228.519 C 140.479 234.664,130.212 231.675,123.131 220.757 C 121.883 218.833,119.633 215.930,118.131 214.306 C 109.012 204.446,108.051 197.079,115.402 193.400 L 118.600 191.800 119.033 189.000 C 119.669 184.889,121.407 179.478,124.300 172.600 C 124.947 171.060,126.422 167.010,127.576 163.600 C 131.561 151.830,137.370 146.409,142.922 149.278 M144.523 166.228 C 138.887 172.188,137.514 180.549,141.407 185.208 C 142.789 186.862,142.813 188.212,141.492 189.901 C 140.856 190.715,141.034 195.247,141.768 196.929 C 142.603 198.843,142.357 199.635,140.484 201.052 C 135.466 204.851,135.642 206.365,141.670 211.224 C 147.684 216.071,151.633 217.013,156.400 214.737 C 159.789 213.119,164.223 208.179,165.004 205.151 C 165.318 203.937,166.143 202.976,168.505 201.073 C 170.458 199.499,170.844 198.466,169.800 197.600 C 169.470 197.326,169.200 196.876,169.200 196.600 C 169.200 196.324,168.918 195.864,168.574 195.578 C 167.496 194.684,166.691 192.699,166.595 190.699 C 166.492 188.550,165.774 187.510,163.721 186.536 C 162.759 186.079,162.400 185.644,162.400 184.935 C 162.400 184.399,162.148 183.473,161.840 182.877 C 161.532 182.282,161.005 179.944,160.670 177.683 C 159.757 171.531,157.002 167.804,151.400 165.141 C 147.843 163.451,147.027 163.580,144.523 166.228 M191.885 273.172 C 191.052 273.560,189.716 274.458,188.916 275.167 C 187.608 276.325,182.200 279.200,181.330 279.200 C 180.498 279.200,177.952 281.800,176.152 284.486 C 175.078 286.089,173.930 287.632,173.600 287.915 C 172.188 289.127,170.039 290.303,167.800 291.090 C 166.480 291.554,164.099 292.403,162.510 292.977 C 160.920 293.551,157.950 294.297,155.910 294.634 C 147.503 296.023,144.409 299.070,144.395 305.971 C 144.392 307.417,144.034 310.310,143.600 312.400 C 141.411 322.937,144.214 328.168,149.227 322.900 C 150.430 321.635,152.405 319.845,153.615 318.923 C 157.297 316.115,168.564 304.777,170.631 301.800 C 171.700 300.260,173.750 297.898,175.187 296.552 C 176.624 295.206,179.124 292.142,180.743 289.744 C 182.875 286.584,184.330 284.896,186.028 283.613 C 187.316 282.639,188.941 281.079,189.640 280.147 C 190.339 279.214,191.404 278.247,192.008 277.997 C 194.406 277.003,196.082 274.139,194.936 272.993 C 194.201 272.258,193.792 272.282,191.885 273.172 " stroke="none" fill="#f6f0ef" fill-rule="evenodd"></path><path id="path3" d="M178.200 25.636 C 158.900 26.655,155.921 27.121,150.167 30.023 C 146.446 31.899,145.670 32.128,140.167 32.980 C 132.544 34.160,131.438 34.475,126.818 36.780 C 124.718 37.829,121.200 39.277,119.000 39.998 C 114.058 41.620,112.947 42.174,108.131 45.416 C 106.020 46.837,104.139 48.000,103.951 48.000 C 102.578 48.000,91.755 53.853,88.826 56.179 C 86.970 57.653,84.720 59.232,83.826 59.689 C 82.932 60.145,81.030 61.628,79.600 62.984 C 78.170 64.341,76.010 66.144,74.800 66.991 C 73.590 67.838,71.610 69.372,70.400 70.400 C 69.190 71.428,66.670 73.364,64.800 74.703 C 61.137 77.326,58.226 80.169,54.667 84.600 C 53.430 86.140,51.340 88.660,50.022 90.200 C 48.705 91.740,46.945 94.164,46.113 95.587 C 45.281 97.009,43.730 98.989,42.667 99.987 C 41.604 100.984,40.257 102.610,39.672 103.600 C 39.088 104.590,37.521 106.587,36.191 108.037 C 33.882 110.556,29.477 118.061,27.175 123.400 C 26.700 124.500,24.965 127.413,23.319 129.872 C 18.395 137.231,14.730 146.771,13.204 156.200 C 12.240 162.160,11.386 164.782,9.268 168.287 C 5.231 174.969,4.377 189.420,5.551 231.200 C 6.092 250.466,6.238 251.480,9.371 257.800 C 11.445 261.985,12.093 264.054,14.191 273.200 C 17.211 286.364,23.275 298.829,29.823 305.339 C 30.964 306.473,32.960 309.110,34.260 311.200 C 36.910 315.462,41.074 320.924,44.453 324.569 C 45.692 325.906,47.271 327.927,47.962 329.059 C 48.653 330.192,50.568 332.326,52.218 333.803 C 53.867 335.279,56.955 338.652,59.078 341.298 C 62.340 345.360,63.660 346.638,67.570 349.516 C 70.116 351.390,73.010 353.667,74.000 354.577 C 74.990 355.487,77.150 357.237,78.800 358.466 C 80.450 359.694,82.430 361.366,83.200 362.180 C 84.422 363.472,87.895 365.828,95.779 370.716 C 96.953 371.443,99.572 372.478,101.637 373.031 C 104.946 373.917,106.023 374.464,111.055 377.816 C 118.370 382.690,121.514 383.919,135.600 387.410 C 137.690 387.928,140.210 388.643,141.200 389.000 C 142.190 389.356,145.250 390.180,148.000 390.831 C 150.750 391.481,154.890 392.708,157.200 393.557 C 160.276 394.687,162.791 395.283,166.600 395.782 C 169.460 396.158,173.690 396.930,176.000 397.500 C 181.536 398.865,197.421 399.085,203.200 397.877 C 205.070 397.487,208.760 397.011,211.400 396.820 C 215.615 396.515,216.599 396.298,219.471 395.034 C 222.451 393.722,227.031 392.446,233.400 391.153 C 234.720 390.884,236.683 390.327,237.761 389.914 C 239.072 389.412,241.108 389.111,243.900 389.005 C 251.792 388.706,263.978 383.502,274.400 375.978 C 278.165 373.260,280.065 372.412,284.282 371.563 C 288.464 370.722,288.579 370.673,292.565 368.004 C 294.124 366.961,296.210 365.698,297.200 365.198 C 298.190 364.698,300.800 362.466,303.000 360.238 C 306.619 356.574,309.648 353.823,312.404 351.698 C 312.952 351.276,315.200 349.873,317.400 348.581 C 323.060 345.256,323.740 344.685,327.120 340.414 C 328.780 338.316,331.610 335.070,333.408 333.200 C 335.206 331.330,337.283 328.900,338.024 327.800 C 338.764 326.700,340.428 324.540,341.721 323.000 C 348.945 314.395,351.765 310.202,353.318 305.757 C 353.856 304.219,355.221 301.535,356.353 299.794 C 357.485 298.052,358.994 295.202,359.706 293.459 C 361.015 290.253,362.715 287.999,368.353 282.000 C 371.652 278.489,372.938 275.702,373.985 269.800 C 375.073 263.664,375.516 262.230,377.753 257.600 C 380.891 251.106,381.457 246.060,381.861 221.000 C 382.378 188.989,381.355 175.740,377.815 168.600 C 375.290 163.508,374.661 161.447,373.788 155.400 C 373.101 150.642,372.240 147.962,368.310 138.361 C 366.655 134.317,365.062 131.150,363.783 129.361 C 362.698 127.842,360.576 124.450,359.069 121.822 C 354.716 114.234,352.584 111.111,350.204 108.840 C 348.983 107.674,347.413 105.883,346.716 104.860 C 346.020 103.837,344.782 102.190,343.966 101.200 C 343.150 100.210,341.837 98.106,341.048 96.524 C 339.663 93.746,333.863 86.233,330.052 82.279 C 327.636 79.774,322.081 75.981,318.307 74.261 C 316.201 73.302,314.967 72.444,314.155 71.376 C 313.520 70.541,311.739 68.494,310.199 66.828 C 308.658 65.163,306.951 63.135,306.406 62.322 C 305.861 61.509,304.718 60.429,303.867 59.922 C 303.015 59.415,300.312 57.675,297.859 56.055 C 295.407 54.435,290.663 51.796,287.317 50.191 C 283.971 48.585,279.741 46.196,277.917 44.882 C 273.841 41.945,273.205 41.626,268.200 40.017 C 266.000 39.310,262.670 38.010,260.800 37.127 C 255.855 34.792,253.744 34.131,248.917 33.406 C 241.416 32.279,240.284 31.967,236.600 30.005 C 230.970 27.008,229.688 26.791,211.600 25.789 C 200.390 25.167,188.132 25.111,178.200 25.636 M206.236 28.196 C 220.620 29.544,225.443 30.421,232.600 32.995 C 235.240 33.944,239.830 35.207,242.800 35.800 C 245.770 36.394,249.910 37.476,252.000 38.204 C 269.730 44.386,270.811 44.858,277.963 49.554 C 279.892 50.821,283.320 52.638,285.581 53.592 C 287.842 54.546,290.802 56.086,292.158 57.015 C 293.514 57.944,296.238 59.516,298.212 60.508 C 302.490 62.661,302.976 63.093,306.658 68.002 C 312.205 75.399,314.309 77.337,319.498 79.822 C 324.594 82.262,327.516 84.711,332.123 90.400 C 333.459 92.050,335.199 94.120,335.990 95.000 C 336.781 95.880,338.651 98.927,340.147 101.771 C 343.625 108.383,345.278 110.786,348.558 113.997 C 350.311 115.712,351.745 117.614,352.781 119.597 C 353.644 121.249,355.711 124.490,357.375 126.800 C 363.114 134.771,368.218 147.131,371.173 160.214 C 372.757 167.225,373.281 168.866,375.470 173.680 C 378.649 180.670,379.875 194.195,379.469 217.800 C 379.132 237.369,378.249 244.533,375.207 252.400 C 372.748 258.758,372.608 259.229,371.466 265.003 C 370.095 271.930,365.781 279.200,363.042 279.200 C 362.668 279.200,362.400 279.532,362.400 279.996 C 362.400 281.667,360.137 287.244,356.935 293.463 C 355.079 297.067,353.062 301.667,352.375 303.863 C 350.802 308.891,350.728 309.034,348.344 311.626 C 347.245 312.822,346.194 314.160,346.009 314.600 C 345.825 315.040,344.363 317.020,342.760 319.000 C 341.158 320.980,338.954 323.950,337.863 325.600 C 336.773 327.250,334.152 330.317,332.040 332.415 C 329.928 334.513,327.400 337.303,326.423 338.615 C 323.323 342.774,322.335 343.628,318.597 345.378 C 316.615 346.305,314.696 347.361,314.332 347.725 C 313.969 348.088,312.515 349.177,311.102 350.145 C 308.814 351.711,307.788 352.229,306.251 352.592 C 306.003 352.650,305.227 352.831,304.527 352.994 C 303.129 353.318,301.483 355.477,299.227 359.947 C 296.930 364.496,288.470 369.344,280.624 370.606 C 275.562 371.421,275.080 371.660,271.800 374.987 C 268.991 377.835,267.804 378.569,258.375 383.287 C 252.775 386.089,247.874 386.859,242.400 385.798 C 241.630 385.649,240.910 385.514,240.800 385.498 C 240.115 385.399,237.970 386.247,236.638 387.143 C 235.138 388.153,234.837 388.197,229.038 388.266 C 221.992 388.348,221.172 388.548,218.103 390.928 C 214.654 393.602,213.640 394.000,210.284 394.000 C 207.792 394.000,206.946 394.191,204.897 395.215 C 198.886 398.219,182.285 398.290,177.632 395.332 C 172.667 392.175,173.323 392.354,166.822 392.392 C 164.489 392.405,162.665 392.003,157.000 390.225 C 156.120 389.948,154.770 389.529,154.000 389.293 C 153.230 389.056,151.250 388.742,149.600 388.593 C 147.950 388.445,145.250 387.960,143.600 387.516 C 141.950 387.071,140.240 386.621,139.800 386.515 C 139.360 386.410,136.840 385.730,134.200 385.006 C 131.560 384.281,127.420 383.209,125.000 382.622 C 119.751 381.350,117.409 380.313,114.200 377.839 C 109.402 374.140,107.035 372.775,103.620 371.740 C 99.577 370.514,98.342 369.930,96.200 368.232 C 95.320 367.534,93.233 366.121,91.562 365.092 C 89.891 364.062,87.414 362.230,86.057 361.019 C 84.700 359.809,82.558 358.158,81.295 357.350 C 80.033 356.543,77.830 354.779,76.400 353.430 C 73.477 350.673,70.066 347.997,66.800 345.897 C 64.127 344.179,63.051 343.034,60.690 339.400 C 58.697 336.331,55.646 333.213,52.703 331.239 C 51.647 330.530,50.088 328.908,49.184 327.577 C 48.291 326.262,46.565 324.070,45.347 322.705 C 43.071 320.154,38.584 313.598,36.920 310.392 C 36.369 309.330,35.838 307.349,35.632 305.592 C 35.172 301.645,35.084 301.482,32.751 300.212 C 27.950 297.599,24.253 291.132,21.422 280.400 C 20.697 277.650,19.109 272.970,17.894 270.000 C 16.678 267.030,15.105 262.541,14.397 260.024 C 13.690 257.508,12.489 254.088,11.728 252.424 C 9.488 247.524,9.196 245.827,8.798 235.400 C 8.596 230.120,8.210 224.000,7.939 221.800 C 7.296 216.572,7.298 195.421,7.942 188.400 C 8.666 180.507,9.267 178.156,12.000 172.535 C 13.736 168.966,14.773 166.149,15.632 162.670 C 16.741 158.183,18.446 152.075,21.116 143.029 C 21.752 140.874,22.981 138.098,24.215 136.029 C 25.339 134.143,27.546 130.440,29.118 127.800 C 30.690 125.160,32.547 121.560,33.245 119.800 C 33.943 118.040,35.270 115.520,36.192 114.200 C 37.115 112.880,38.934 110.277,40.235 108.414 C 41.536 106.552,43.694 103.852,45.032 102.414 C 46.370 100.977,47.895 99.080,48.422 98.200 C 48.949 97.320,51.256 94.620,53.548 92.200 C 55.840 89.780,58.660 86.620,59.813 85.177 C 62.283 82.089,64.914 79.662,69.362 76.369 C 75.305 71.968,78.937 69.025,81.990 66.135 C 83.654 64.559,86.438 62.429,88.176 61.402 C 89.914 60.374,92.327 58.726,93.539 57.738 C 96.151 55.611,97.714 54.778,102.114 53.166 C 103.921 52.505,106.622 51.155,108.116 50.168 C 112.617 47.192,117.920 44.548,123.200 42.646 C 125.950 41.655,130.180 40.037,132.600 39.050 C 135.165 38.003,139.085 36.816,142.000 36.204 C 144.750 35.626,150.150 34.172,154.000 32.972 C 168.095 28.581,189.477 26.626,206.236 28.196 M167.400 65.619 C 166.300 65.795,162.790 66.386,159.600 66.933 C 156.410 67.480,151.910 68.044,149.600 68.186 C 142.837 68.603,139.306 69.168,134.200 70.648 C 129.440 72.028,126.472 72.588,117.600 73.781 C 115.070 74.121,111.290 74.951,109.200 75.624 C 107.110 76.297,103.884 77.211,102.031 77.655 C 92.073 80.042,89.049 82.405,84.746 91.158 C 83.382 93.931,81.601 97.370,80.786 98.800 C 78.065 103.579,77.811 108.190,79.903 114.804 C 81.695 120.470,82.730 121.129,88.755 120.441 C 99.568 119.206,105.482 123.193,100.141 128.118 C 98.899 129.263,96.874 131.259,95.641 132.552 C 91.887 136.493,87.933 138.194,82.911 138.028 C 81.762 137.991,80.458 138.155,80.013 138.393 C 76.990 140.011,75.863 150.361,78.054 156.365 C 79.888 161.388,80.106 162.771,79.837 167.680 C 79.524 173.374,80.166 178.203,82.392 186.916 C 83.247 190.262,84.328 195.700,84.793 199.000 C 87.240 216.349,94.928 229.885,110.012 243.400 C 112.468 245.600,115.480 248.750,116.705 250.400 C 117.931 252.050,120.218 254.677,121.788 256.238 C 130.333 264.736,131.073 268.504,125.389 274.561 C 122.847 277.270,122.853 279.165,125.414 283.222 C 126.783 285.391,128.570 290.975,129.183 295.000 C 131.146 307.904,134.730 320.516,136.958 322.365 C 137.311 322.658,137.600 323.042,137.600 323.218 C 137.600 324.708,143.906 331.721,145.612 332.129 C 148.472 332.813,158.109 325.184,164.721 317.000 C 165.966 315.460,167.797 313.381,168.792 312.380 C 171.650 309.504,176.238 304.343,177.561 302.517 C 178.227 301.598,179.800 300.087,181.057 299.158 C 182.314 298.230,184.615 296.194,186.171 294.635 C 187.727 293.076,191.281 290.024,194.068 287.853 C 200.471 282.865,203.552 279.079,204.999 274.423 C 205.166 273.885,205.944 272.535,206.728 271.423 C 207.511 270.310,209.129 267.510,210.323 265.200 C 212.550 260.889,214.466 257.989,216.007 256.594 C 217.029 255.669,219.903 250.947,220.291 249.556 C 220.789 247.767,220.520 238.400,219.970 238.400 C 219.313 238.400,217.933 235.112,217.724 233.049 C 217.364 229.508,218.178 226.636,220.963 221.613 C 224.650 214.966,225.336 209.798,225.255 189.260 C 225.218 179.803,225.333 176.972,225.850 174.702 C 226.682 171.043,226.433 168.198,225.200 167.280 C 223.253 165.830,222.438 164.666,222.027 162.751 C 221.462 160.116,221.482 151.733,222.061 148.592 C 222.615 145.582,221.755 143.703,219.232 142.416 C 216.635 141.092,215.685 139.086,214.384 132.181 C 212.138 120.262,208.566 108.969,204.034 99.459 C 202.477 96.192,200.687 91.872,200.056 89.859 C 194.131 70.953,183.484 63.050,167.400 65.619 M158.862 76.442 C 162.802 76.922,164.959 77.671,165.146 78.624 C 165.370 79.772,164.061 81.841,162.618 82.618 C 160.558 83.728,159.848 85.452,160.179 88.545 C 160.510 91.628,158.895 94.731,156.931 94.787 C 156.673 94.794,155.902 95.270,155.219 95.845 C 153.353 97.416,154.188 98.026,160.743 99.880 C 165.107 101.115,165.758 103.270,163.166 107.904 C 162.519 109.061,161.741 111.041,161.439 112.304 C 161.136 113.567,160.683 115.120,160.433 115.755 C 158.357 121.023,161.375 123.632,168.400 122.643 C 180.525 120.935,182.893 125.842,170.984 128.000 C 163.915 129.281,163.168 129.816,161.410 134.848 C 158.668 142.696,163.555 145.254,176.200 142.590 C 184.714 140.796,190.422 142.502,193.334 147.709 C 194.187 149.234,195.676 151.042,197.096 152.277 C 202.206 156.722,203.162 160.082,203.676 175.400 C 203.890 181.780,204.095 187.465,204.132 188.034 C 204.170 188.603,204.664 189.773,205.232 190.634 C 208.767 195.997,210.172 199.383,210.873 204.229 C 211.574 209.081,208.808 216.711,205.087 220.189 C 202.700 222.421,199.010 225.278,197.553 226.023 C 193.526 228.081,187.784 232.541,184.000 236.548 C 174.709 246.388,172.410 248.153,166.800 249.757 C 158.215 252.212,152.917 251.253,141.534 245.183 C 135.825 242.140,135.804 242.127,133.400 240.183 C 130.659 237.967,127.712 236.188,125.800 235.596 C 123.068 234.751,115.452 231.001,112.776 229.184 C 110.400 227.570,109.488 226.697,104.648 221.400 C 101.972 218.472,100.973 215.500,99.992 207.549 C 99.541 203.890,98.630 198.310,97.968 195.149 C 97.306 191.987,96.548 188.320,96.282 187.000 C 95.453 182.873,95.752 177.975,97.161 172.600 C 100.054 161.569,100.318 160.739,101.243 159.754 C 102.550 158.363,107.361 156.079,110.000 155.598 C 114.694 154.741,121.639 150.633,123.069 147.866 C 126.046 142.109,123.434 136.306,117.186 134.798 C 110.557 133.197,110.548 133.127,116.600 130.354 C 121.797 127.972,122.028 126.294,117.830 121.400 C 116.698 120.080,115.431 118.463,115.015 117.807 C 114.599 117.150,113.825 116.160,113.294 115.607 C 108.671 110.787,109.754 108.790,118.417 106.160 C 123.664 104.567,125.200 103.755,125.200 102.573 C 125.200 102.104,125.400 101.144,125.645 100.441 C 126.181 98.905,125.424 97.801,123.555 97.390 C 122.916 97.250,122.212 96.796,121.990 96.381 C 121.768 95.966,120.914 95.441,120.093 95.213 C 116.090 94.102,110.000 88.881,110.000 86.560 C 110.000 84.299,115.873 81.941,123.339 81.206 C 128.009 80.746,132.270 79.734,137.400 77.867 C 142.090 76.160,151.447 75.539,158.862 76.442 M190.581 104.443 C 194.069 105.412,196.828 110.113,195.228 112.360 C 192.748 115.844,179.600 113.252,179.600 109.280 C 179.600 105.364,185.128 102.930,190.581 104.443 M138.163 148.832 C 134.098 150.009,130.459 155.085,127.576 163.600 C 126.422 167.010,124.947 171.060,124.300 172.600 C 121.407 179.478,119.669 184.889,119.033 189.000 L 118.600 191.800 115.402 193.400 C 108.051 197.079,109.012 204.446,118.131 214.306 C 119.633 215.930,121.883 218.833,123.131 220.757 C 130.212 231.675,140.479 234.664,149.791 228.519 C 153.033 226.380,156.983 225.334,165.361 224.396 C 175.444 223.268,181.295 220.472,184.347 215.322 C 184.926 214.345,185.984 212.703,186.697 211.673 C 187.410 210.643,188.645 208.820,189.442 207.622 C 190.238 206.424,192.035 204.174,193.436 202.622 C 196.110 199.657,197.564 197.185,198.410 194.165 C 200.168 187.887,188.892 180.996,182.678 184.551 C 179.166 186.560,176.009 186.052,175.983 183.473 C 175.973 182.553,175.792 180.990,175.580 180.000 C 175.368 179.010,175.047 177.372,174.867 176.359 C 174.484 174.212,173.114 171.824,171.755 170.934 C 171.230 170.590,169.967 169.024,168.948 167.454 C 164.322 160.324,163.457 159.257,161.054 157.721 C 160.204 157.177,158.224 155.693,156.654 154.424 C 152.974 151.447,151.668 150.801,149.320 150.796 C 147.486 150.792,144.462 150.074,142.922 149.278 C 141.730 148.662,139.479 148.451,138.163 148.832 M151.400 165.141 C 157.002 167.804,159.757 171.531,160.670 177.683 C 161.005 179.944,161.532 182.282,161.840 182.877 C 162.148 183.473,162.400 184.399,162.400 184.935 C 162.400 185.644,162.759 186.079,163.721 186.536 C 165.774 187.510,166.492 188.550,166.595 190.699 C 166.691 192.699,167.496 194.684,168.574 195.578 C 168.918 195.864,169.200 196.324,169.200 196.600 C 169.200 196.876,169.470 197.326,169.800 197.600 C 170.844 198.466,170.458 199.499,168.505 201.073 C 166.143 202.976,165.318 203.937,165.004 205.151 C 164.223 208.179,159.789 213.119,156.400 214.737 C 151.633 217.013,147.684 216.071,141.670 211.224 C 135.642 206.365,135.466 204.851,140.484 201.052 C 142.357 199.635,142.603 198.843,141.768 196.929 C 141.034 195.247,140.856 190.715,141.492 189.901 C 142.813 188.212,142.789 186.862,141.407 185.208 C 137.514 180.549,138.887 172.188,144.523 166.228 C 147.027 163.580,147.843 163.451,151.400 165.141 M194.936 272.993 C 196.082 274.139,194.406 277.003,192.008 277.997 C 191.404 278.247,190.339 279.214,189.640 280.147 C 188.941 281.079,187.316 282.639,186.028 283.613 C 184.330 284.896,182.875 286.584,180.743 289.744 C 179.124 292.142,176.624 295.206,175.187 296.552 C 173.750 297.898,171.700 300.260,170.631 301.800 C 168.564 304.777,157.297 316.115,153.615 318.923 C 152.405 319.845,150.430 321.635,149.227 322.900 C 144.214 328.168,141.411 322.937,143.600 312.400 C 144.034 310.310,144.392 307.417,144.395 305.971 C 144.409 299.070,147.503 296.023,155.910 294.634 C 157.950 294.297,160.920 293.551,162.510 292.977 C 164.099 292.403,166.480 291.554,167.800 291.090 C 170.039 290.303,172.188 289.127,173.600 287.915 C 173.930 287.632,175.078 286.089,176.152 284.486 C 177.952 281.800,180.498 279.200,181.330 279.200 C 182.200 279.200,187.608 276.325,188.916 275.167 C 191.493 272.885,193.943 272.000,194.936 272.993 M336.040 300.240 C 335.578 300.827,335.177 301.509,335.148 301.754 C 334.885 304.025,334.939 305.600,335.278 305.600 C 335.502 305.600,335.567 305.910,335.422 306.288 C 335.276 306.666,335.286 306.848,335.442 306.691 C 335.598 306.535,335.944 306.587,336.209 306.807 C 336.554 307.094,337.033 306.807,337.891 305.804 C 338.550 305.032,339.291 304.400,339.537 304.400 C 339.783 304.400,340.098 303.950,340.236 303.400 C 340.374 302.850,340.631 302.400,340.808 302.400 C 341.726 302.400,340.626 300.464,339.461 300.029 C 337.088 299.141,336.895 299.153,336.040 300.240 " stroke="none" fill="#c2a19c" fill-rule="evenodd"></path><path id="path4" d="M179.000 28.418 C 167.340 29.532,161.807 30.540,154.000 32.972 C 150.150 34.172,144.750 35.626,142.000 36.204 C 139.085 36.816,135.165 38.003,132.600 39.050 C 130.180 40.037,125.950 41.655,123.200 42.646 C 117.920 44.548,112.617 47.192,108.116 50.168 C 106.622 51.155,103.921 52.505,102.114 53.166 C 97.714 54.778,96.151 55.611,93.539 57.738 C 92.327 58.726,89.914 60.374,88.176 61.402 C 86.438 62.429,83.654 64.559,81.990 66.135 C 78.937 69.025,75.305 71.968,69.362 76.369 C 64.914 79.662,62.283 82.089,59.813 85.177 C 58.660 86.620,55.840 89.780,53.548 92.200 C 51.256 94.620,48.949 97.320,48.422 98.200 C 47.895 99.080,46.370 100.977,45.032 102.414 C 43.694 103.852,41.536 106.552,40.235 108.414 C 38.934 110.277,37.115 112.880,36.192 114.200 C 35.270 115.520,33.943 118.040,33.245 119.800 C 32.547 121.560,30.690 125.160,29.118 127.800 C 27.546 130.440,25.339 134.143,24.215 136.029 C 22.981 138.098,21.752 140.874,21.116 143.029 C 18.446 152.075,16.741 158.183,15.632 162.670 C 14.773 166.149,13.736 168.966,12.000 172.535 C 9.267 178.156,8.666 180.507,7.942 188.400 C 7.298 195.421,7.296 216.572,7.939 221.800 C 8.210 224.000,8.596 230.120,8.798 235.400 C 9.196 245.827,9.488 247.524,11.728 252.424 C 12.489 254.088,13.690 257.508,14.397 260.024 C 15.105 262.541,16.678 267.030,17.894 270.000 C 19.109 272.970,20.697 277.650,21.422 280.400 C 24.577 292.361,27.833 297.541,34.493 301.192 C 39.771 304.084,45.248 302.932,52.800 297.340 C 54.450 296.119,57.203 294.307,58.918 293.314 C 60.633 292.322,63.243 290.405,64.718 289.055 C 73.055 281.425,84.169 277.679,93.379 279.392 C 97.015 280.069,96.922 280.867,92.704 285.200 C 89.986 287.991,89.169 289.465,86.716 296.000 C 85.850 298.310,84.350 301.820,83.385 303.800 C 78.912 312.971,79.718 321.200,85.090 321.200 C 88.299 321.200,90.347 319.421,91.996 315.200 C 93.559 311.201,95.644 307.962,98.395 305.264 C 102.927 300.818,104.970 288.539,102.233 282.200 C 101.307 280.055,101.312 280.103,101.760 278.000 C 102.405 274.978,107.607 270.950,111.134 270.742 C 113.011 270.631,113.912 271.294,116.307 274.550 C 119.132 278.391,121.928 278.293,125.701 274.220 C 131.032 268.466,130.189 264.594,121.788 256.238 C 120.218 254.677,117.931 252.050,116.705 250.400 C 115.480 248.750,112.468 245.600,110.012 243.400 C 94.928 229.885,87.240 216.349,84.793 199.000 C 84.328 195.700,83.247 190.262,82.392 186.916 C 80.166 178.203,79.524 173.374,79.837 167.680 C 80.106 162.771,79.888 161.388,78.054 156.365 C 75.863 150.361,76.990 140.011,80.013 138.393 C 80.458 138.155,81.762 137.991,82.911 138.028 C 87.933 138.194,91.887 136.493,95.641 132.552 C 96.874 131.259,98.899 129.263,100.141 128.118 C 105.482 123.193,99.568 119.206,88.755 120.441 C 82.730 121.129,81.695 120.470,79.903 114.804 C 77.811 108.190,78.065 103.579,80.786 98.800 C 81.601 97.370,83.382 93.931,84.746 91.158 C 89.049 82.405,92.073 80.042,102.031 77.655 C 103.884 77.211,107.110 76.297,109.200 75.624 C 111.290 74.951,115.070 74.121,117.600 73.781 C 126.434 72.594,129.434 72.030,134.200 70.664 C 140.202 68.943,140.283 68.930,149.000 68.221 C 152.960 67.899,158.720 67.160,161.800 66.580 C 183.189 62.553,193.457 68.801,200.056 89.859 C 200.687 91.872,202.477 96.192,204.034 99.459 C 208.566 108.969,212.138 120.262,214.384 132.181 C 215.685 139.086,216.635 141.092,219.232 142.416 C 221.755 143.703,222.615 145.582,222.061 148.592 C 221.482 151.733,221.462 160.116,222.027 162.751 C 222.438 164.666,223.253 165.830,225.200 167.280 C 226.433 168.198,226.682 171.043,225.850 174.702 C 225.333 176.972,225.218 179.803,225.255 189.260 C 225.336 209.798,224.650 214.966,220.963 221.613 C 214.846 232.644,217.566 241.795,225.846 238.035 C 227.836 237.131,229.258 235.352,230.370 232.374 C 231.439 229.514,232.579 228.258,233.822 228.570 C 235.515 228.995,241.770 233.514,243.532 235.586 C 248.765 241.739,263.047 248.123,277.600 250.812 C 287.809 252.699,305.134 258.507,314.200 263.083 C 317.758 264.879,320.173 265.714,325.516 266.996 C 332.176 268.595,343.652 272.599,349.600 275.400 C 359.932 280.266,362.434 280.476,366.046 276.786 C 368.972 273.795,370.295 270.919,371.466 265.003 C 372.608 259.229,372.748 258.758,375.207 252.400 C 378.249 244.533,379.132 237.369,379.469 217.800 C 379.875 194.195,378.649 180.670,375.470 173.680 C 373.281 168.866,372.757 167.225,371.173 160.214 C 368.218 147.131,363.114 134.771,357.375 126.800 C 355.711 124.490,353.644 121.249,352.781 119.597 C 351.745 117.614,350.311 115.712,348.558 113.997 C 345.278 110.786,343.625 108.383,340.147 101.771 C 338.651 98.927,336.781 95.880,335.990 95.000 C 335.199 94.120,333.459 92.050,332.123 90.400 C 327.516 84.711,324.594 82.262,319.498 79.822 C 314.309 77.337,312.205 75.399,306.658 68.002 C 302.976 63.093,302.490 62.661,298.212 60.508 C 296.238 59.516,293.514 57.944,292.158 57.015 C 290.802 56.086,287.842 54.546,285.581 53.592 C 283.320 52.638,279.892 50.821,277.963 49.554 C 270.811 44.858,269.730 44.386,252.000 38.204 C 249.910 37.476,245.770 36.394,242.800 35.800 C 239.830 35.207,235.240 33.944,232.600 32.995 C 219.839 28.406,198.336 26.570,179.000 28.418 M204.178 30.207 C 206.061 30.536,210.706 31.592,214.501 32.555 C 218.295 33.518,223.650 34.791,226.400 35.383 C 237.163 37.702,250.818 41.213,255.200 42.789 C 257.730 43.698,261.870 45.168,264.400 46.054 C 269.367 47.793,271.737 49.008,276.400 52.207 C 278.050 53.339,281.096 54.932,283.170 55.747 C 285.243 56.562,288.067 58.034,289.446 59.018 C 290.825 60.002,293.428 61.429,295.232 62.190 C 300.681 64.488,302.104 65.814,306.014 72.240 C 310.644 79.848,312.350 81.418,318.249 83.501 C 321.490 84.646,327.287 89.242,329.896 92.733 C 330.334 93.320,331.709 94.934,332.951 96.320 C 335.599 99.276,337.210 102.298,339.058 107.779 C 340.533 112.152,340.625 113.382,339.982 120.179 C 339.491 125.367,339.934 127.616,341.706 128.940 L 342.800 129.756 343.900 128.954 C 344.505 128.512,345.540 127.097,346.200 125.809 C 347.951 122.391,348.545 122.188,350.340 124.390 C 351.143 125.375,352.515 126.815,353.388 127.590 C 356.811 130.629,357.742 131.890,359.870 136.362 C 363.633 144.273,365.216 149.040,369.202 164.464 C 370.490 169.449,372.353 175.574,373.342 178.076 C 378.208 190.378,379.519 219.472,375.991 236.835 C 375.214 240.657,374.618 242.804,371.876 251.673 C 371.081 254.244,369.910 258.834,369.274 261.873 C 367.938 268.254,366.943 270.616,364.760 272.588 C 362.278 274.831,360.634 274.422,347.400 268.273 C 343.439 266.433,339.837 265.132,335.091 263.829 C 331.401 262.816,326.541 261.252,324.291 260.354 C 322.041 259.456,318.310 258.044,316.000 257.217 C 313.690 256.390,309.665 254.782,307.055 253.644 C 302.530 251.671,291.310 248.301,275.055 244.034 C 260.337 240.171,251.242 235.555,245.000 228.780 C 244.120 227.824,242.050 225.683,240.400 224.021 C 231.617 215.176,230.566 212.265,230.719 197.200 C 230.851 184.162,231.208 181.614,233.601 176.598 C 236.430 170.669,236.569 166.924,234.149 161.827 C 232.357 158.054,232.141 155.774,233.009 149.800 C 234.849 137.142,232.323 127.104,226.452 123.742 C 221.203 120.737,220.552 119.517,218.374 108.617 C 216.949 101.479,216.390 99.878,213.624 95.000 C 212.128 92.360,210.343 89.087,209.659 87.726 C 208.248 84.921,200.704 74.497,196.246 69.194 C 193.230 65.606,188.091 62.399,183.462 61.217 C 177.214 59.620,175.738 59.676,158.800 62.148 C 155.170 62.678,149.596 63.240,146.414 63.397 C 142.636 63.584,139.652 63.959,137.814 64.478 C 131.501 66.262,126.741 67.207,122.014 67.615 C 116.312 68.107,114.567 68.428,109.000 70.008 C 106.800 70.632,104.100 71.264,103.000 71.412 C 91.240 72.995,84.169 76.662,79.451 83.623 C 78.763 84.638,76.817 86.983,75.126 88.834 C 68.385 96.216,67.225 97.719,66.211 100.379 C 64.032 106.096,64.099 110.376,66.521 120.406 C 69.802 133.990,69.594 145.667,65.994 149.979 C 61.894 154.889,62.189 160.205,66.969 167.595 C 73.181 177.198,74.101 181.218,71.633 187.977 C 69.905 192.709,69.975 193.470,72.382 196.104 C 75.011 198.980,77.248 202.843,81.289 211.478 C 86.152 221.872,92.560 231.991,97.958 237.800 C 98.571 238.460,99.943 240.170,101.006 241.600 C 102.069 243.030,103.954 245.280,105.194 246.600 C 111.389 253.194,110.944 258.896,103.862 263.688 C 102.508 264.604,100.500 266.067,99.400 266.940 C 95.847 269.758,92.227 271.157,87.313 271.611 C 77.567 272.511,75.596 272.830,71.314 274.199 C 68.871 274.980,64.560 276.224,61.736 276.962 C 55.827 278.508,52.406 279.774,51.722 280.669 C 51.459 281.012,50.658 281.937,49.942 282.724 C 49.226 283.510,48.272 284.882,47.820 285.771 C 45.472 290.402,35.907 294.832,32.807 292.725 C 29.909 290.754,29.129 283.963,31.622 282.391 C 31.804 282.276,32.218 281.672,32.541 281.049 C 33.658 278.895,32.751 277.768,26.580 273.652 C 22.859 271.170,18.629 263.729,15.976 255.000 C 12.798 244.540,12.717 244.143,12.828 239.600 C 13.050 230.511,12.951 229.058,11.878 225.763 C 8.155 214.325,8.380 192.572,12.338 181.200 C 13.634 177.477,17.046 170.553,18.773 168.141 C 20.929 165.131,21.935 161.719,22.404 155.825 C 23.004 148.283,23.238 146.769,24.196 144.200 C 25.726 140.098,29.863 132.223,31.907 129.523 C 33.317 127.660,34.174 125.954,34.997 123.372 C 36.381 119.033,36.938 117.868,38.618 115.800 C 39.334 114.920,40.591 113.049,41.412 111.643 C 42.234 110.236,44.187 107.649,45.753 105.895 C 47.319 104.140,49.410 101.662,50.400 100.388 C 51.390 99.114,52.830 97.567,53.600 96.951 C 58.260 93.220,61.960 89.466,63.118 87.294 C 64.745 84.240,65.135 83.910,74.400 77.750 C 76.332 76.466,80.132 73.217,83.200 70.226 C 86.394 67.113,89.662 64.329,91.200 63.414 C 92.630 62.562,94.713 61.015,95.829 59.977 C 98.244 57.730,99.863 56.869,104.400 55.421 C 106.554 54.734,109.119 53.488,111.400 52.022 C 116.051 49.032,116.637 48.749,121.370 47.221 C 123.554 46.516,126.566 45.322,128.064 44.568 C 134.700 41.226,151.705 36.441,162.817 34.790 C 164.457 34.546,168.140 33.739,171.000 32.996 C 185.171 29.315,194.545 28.527,204.178 30.207 M182.727 105.013 C 178.162 107.390,178.376 111.011,183.182 112.697 C 190.942 115.419,197.059 113.703,195.378 109.275 C 193.546 104.451,187.632 102.458,182.727 105.013 M111.400 306.862 C 108.921 308.218,109.012 314.252,111.541 316.307 C 118.349 321.838,122.851 317.173,117.335 310.302 C 114.567 306.854,113.036 305.967,111.400 306.862 " stroke="none" fill="#b05a6a" fill-rule="evenodd"></path></g></svg>